<svg width="50" height="68" viewBox="0 0 50 68" fill="none" xmlns="http://www.w3.org/2000/svg">
<path d="M27.8333 1.82904C26.2678 0.26591 23.7322 0.26591 22.1667 1.82904V1.82904C21.25 2.74432 0 24.2117 0 42.4341C0 56.1632 11.25 67.3962 25 67.3962C38.75 67.3962 50 56.1632 50 42.4341C50 24.2949 28.75 2.74432 27.8333 1.82904V1.82904ZM12.5 38.2737C14.8333 38.2737 16.6667 40.1043 16.6667 42.4341C16.6667 47.0105 20.4167 50.7548 25 50.7548C27.3333 50.7548 29.1667 52.5853 29.1667 54.9151C29.1667 57.2449 27.3333 59.0755 25 59.0755C15.8333 59.0755 8.33333 51.5868 8.33333 42.4341C8.33333 40.1043 10.1667 38.2737 12.5 38.2737Z" fill="#AA0113"/>
</svg>
